<mxfile host="65bd71144e">
    <diagram id="ps2GzSvc8gpSdzRoo8fU" name="Page-1">
        <mxGraphModel dx="1519" dy="949" grid="1" gridSize="10" guides="1" tooltips="1" connect="1" arrows="1" fold="1" page="1" pageScale="1" pageWidth="850" pageHeight="1100" background="#000000" math="0" shadow="0">
            <root>
                <mxCell id="0"/>
                <mxCell id="1" parent="0"/>
                <mxCell id="2" value="App" style="rounded=1;whiteSpace=wrap;html=1;fillColor=#e51400;strokeColor=#B20000;fontColor=#000000;labelBackgroundColor=none;horizontal=1;" vertex="1" parent="1">
                    <mxGeometry x="340" y="80" width="120" height="60" as="geometry"/>
                </mxCell>
                <mxCell id="50" style="edgeStyle=none;html=1;exitX=0.5;exitY=0;exitDx=0;exitDy=0;entryX=0;entryY=1;entryDx=0;entryDy=0;fontColor=#000000;fillColor=#e51400;strokeColor=#B20000;labelBackgroundColor=none;horizontal=1;" edge="1" parent="1" source="3" target="2">
                    <mxGeometry relative="1" as="geometry"/>
                </mxCell>
                <mxCell id="3" value="Home" style="rounded=1;whiteSpace=wrap;html=1;fillColor=#e51400;strokeColor=#B20000;fontColor=#000000;labelBackgroundColor=none;horizontal=1;" vertex="1" parent="1">
                    <mxGeometry x="240" y="160" width="120" height="60" as="geometry"/>
                </mxCell>
                <mxCell id="49" style="edgeStyle=none;html=1;exitX=0.5;exitY=0;exitDx=0;exitDy=0;entryX=0.5;entryY=1;entryDx=0;entryDy=0;fontColor=#000000;fillColor=#e51400;strokeColor=#B20000;labelBackgroundColor=none;horizontal=1;" edge="1" parent="1" source="53" target="3">
                    <mxGeometry relative="1" as="geometry">
                        <mxPoint x="180" y="280" as="sourcePoint"/>
                    </mxGeometry>
                </mxCell>
                <mxCell id="51" style="edgeStyle=none;html=1;exitX=0.5;exitY=0;exitDx=0;exitDy=0;entryX=1;entryY=1;entryDx=0;entryDy=0;fontColor=#000000;fillColor=#e51400;strokeColor=#B20000;labelBackgroundColor=none;horizontal=1;" edge="1" parent="1" source="13" target="2">
                    <mxGeometry relative="1" as="geometry"/>
                </mxCell>
                <mxCell id="13" value="Fights" style="rounded=1;whiteSpace=wrap;html=1;fillColor=#e51400;strokeColor=#B20000;fontColor=#000000;labelBackgroundColor=none;horizontal=1;" vertex="1" parent="1">
                    <mxGeometry x="440" y="160" width="120" height="60" as="geometry"/>
                </mxCell>
                <mxCell id="52" style="edgeStyle=none;html=1;exitX=0.5;exitY=0;exitDx=0;exitDy=0;entryX=1;entryY=0.5;entryDx=0;entryDy=0;fontColor=#000000;fillColor=#e51400;strokeColor=#B20000;labelBackgroundColor=none;horizontal=1;" edge="1" parent="1" source="15" target="2">
                    <mxGeometry relative="1" as="geometry"/>
                </mxCell>
                <mxCell id="15" value="Create Fight" style="rounded=1;whiteSpace=wrap;html=1;fillColor=#e51400;strokeColor=#B20000;fontColor=#000000;labelBackgroundColor=none;horizontal=1;" vertex="1" parent="1">
                    <mxGeometry x="600" y="160" width="120" height="60" as="geometry"/>
                </mxCell>
                <mxCell id="48" style="edgeStyle=none;html=1;exitX=0.5;exitY=0;exitDx=0;exitDy=0;entryX=0.5;entryY=1;entryDx=0;entryDy=0;fontColor=#000000;fillColor=#e51400;strokeColor=#B20000;labelBackgroundColor=none;horizontal=1;" edge="1" parent="1" source="35" target="13">
                    <mxGeometry relative="1" as="geometry"/>
                </mxCell>
                <mxCell id="35" value="FightsCard" style="swimlane;fontStyle=0;childLayout=stackLayout;horizontal=1;startSize=30;horizontalStack=0;resizeParent=1;resizeParentMax=0;resizeLast=0;collapsible=1;marginBottom=0;fillColor=#e51400;labelBorderColor=none;strokeColor=#B20000;fontColor=#000000;labelBackgroundColor=none;rounded=0;" vertex="1" parent="1">
                    <mxGeometry x="434" y="280" width="132" height="180" as="geometry">
                        <mxRectangle x="359" y="280" width="90" height="30" as="alternateBounds"/>
                    </mxGeometry>
                </mxCell>
                <mxCell id="36" value="Fighter Name" style="text;align=left;verticalAlign=middle;spacingLeft=4;spacingRight=4;overflow=hidden;points=[[0,0.5],[1,0.5]];portConstraint=eastwest;rotatable=0;fontStyle=0;fillColor=#e51400;labelBorderColor=none;strokeColor=#B20000;fontColor=#000000;labelBackgroundColor=none;horizontal=1;" vertex="1" parent="35">
                    <mxGeometry y="30" width="132" height="30" as="geometry"/>
                </mxCell>
                <mxCell id="37" value="Age" style="text;align=left;verticalAlign=middle;spacingLeft=4;spacingRight=4;overflow=hidden;points=[[0,0.5],[1,0.5]];portConstraint=eastwest;rotatable=0;fontStyle=0;fillColor=#e51400;labelBorderColor=none;strokeColor=#B20000;fontColor=#000000;labelBackgroundColor=none;horizontal=1;" vertex="1" parent="35">
                    <mxGeometry y="60" width="132" height="30" as="geometry"/>
                </mxCell>
                <mxCell id="39" value="Height" style="text;align=left;verticalAlign=middle;spacingLeft=4;spacingRight=4;overflow=hidden;points=[[0,0.5],[1,0.5]];portConstraint=eastwest;rotatable=0;fontStyle=0;fillColor=#e51400;labelBorderColor=none;strokeColor=#B20000;fontColor=#000000;labelBackgroundColor=none;horizontal=1;" vertex="1" parent="35">
                    <mxGeometry y="90" width="132" height="30" as="geometry"/>
                </mxCell>
                <mxCell id="38" value="Weight" style="text;align=left;verticalAlign=middle;spacingLeft=4;spacingRight=4;overflow=hidden;points=[[0,0.5],[1,0.5]];portConstraint=eastwest;rotatable=0;fontStyle=0;fillColor=#e51400;labelBorderColor=none;strokeColor=#B20000;fontColor=#000000;labelBackgroundColor=none;horizontal=1;" vertex="1" parent="35">
                    <mxGeometry y="120" width="132" height="30" as="geometry"/>
                </mxCell>
                <mxCell id="40" value="Reach" style="text;align=left;verticalAlign=middle;spacingLeft=4;spacingRight=4;overflow=hidden;points=[[0,0.5],[1,0.5]];portConstraint=eastwest;rotatable=0;fontStyle=0;fillColor=#e51400;labelBorderColor=none;strokeColor=#B20000;fontColor=#000000;labelBackgroundColor=none;horizontal=1;" vertex="1" parent="35">
                    <mxGeometry y="150" width="132" height="30" as="geometry"/>
                </mxCell>
                <mxCell id="47" style="edgeStyle=none;html=1;entryX=0.5;entryY=1;entryDx=0;entryDy=0;fontColor=#000000;fillColor=#e51400;strokeColor=#B20000;labelBackgroundColor=none;horizontal=1;" edge="1" parent="1" source="41" target="15">
                    <mxGeometry relative="1" as="geometry"/>
                </mxCell>
                <mxCell id="41" value="CreatFightCard" style="swimlane;fontStyle=0;childLayout=stackLayout;horizontal=1;startSize=30;horizontalStack=0;resizeParent=1;resizeParentMax=0;resizeLast=0;collapsible=1;marginBottom=0;fillColor=#e51400;labelBorderColor=none;strokeColor=#B20000;fontColor=#000000;labelBackgroundColor=none;" vertex="1" parent="1">
                    <mxGeometry x="670" y="280" width="132" height="180" as="geometry">
                        <mxRectangle x="600" y="280" width="90" height="30" as="alternateBounds"/>
                    </mxGeometry>
                </mxCell>
                <mxCell id="42" value="Fighter Name" style="text;align=left;verticalAlign=middle;spacingLeft=4;spacingRight=4;overflow=hidden;points=[[0,0.5],[1,0.5]];portConstraint=eastwest;rotatable=0;fontStyle=0;fillColor=#e51400;labelBorderColor=none;strokeColor=#B20000;fontColor=#000000;labelBackgroundColor=none;horizontal=1;" vertex="1" parent="41">
                    <mxGeometry y="30" width="132" height="30" as="geometry"/>
                </mxCell>
                <mxCell id="43" value="Age" style="text;align=left;verticalAlign=middle;spacingLeft=4;spacingRight=4;overflow=hidden;points=[[0,0.5],[1,0.5]];portConstraint=eastwest;rotatable=0;fontStyle=0;fillColor=#e51400;labelBorderColor=none;strokeColor=#B20000;fontColor=#000000;labelBackgroundColor=none;horizontal=1;" vertex="1" parent="41">
                    <mxGeometry y="60" width="132" height="30" as="geometry"/>
                </mxCell>
                <mxCell id="44" value="Height" style="text;align=left;verticalAlign=middle;spacingLeft=4;spacingRight=4;overflow=hidden;points=[[0,0.5],[1,0.5]];portConstraint=eastwest;rotatable=0;fontStyle=0;fillColor=#e51400;labelBorderColor=none;strokeColor=#B20000;fontColor=#000000;labelBackgroundColor=none;horizontal=1;" vertex="1" parent="41">
                    <mxGeometry y="90" width="132" height="30" as="geometry"/>
                </mxCell>
                <mxCell id="45" value="Weight" style="text;align=left;verticalAlign=middle;spacingLeft=4;spacingRight=4;overflow=hidden;points=[[0,0.5],[1,0.5]];portConstraint=eastwest;rotatable=0;fontStyle=0;fillColor=#e51400;labelBorderColor=none;strokeColor=#B20000;fontColor=#000000;labelBackgroundColor=none;horizontal=1;" vertex="1" parent="41">
                    <mxGeometry y="120" width="132" height="30" as="geometry"/>
                </mxCell>
                <mxCell id="46" value="Reach" style="text;align=left;verticalAlign=middle;spacingLeft=4;spacingRight=4;overflow=hidden;points=[[0,0.5],[1,0.5]];portConstraint=eastwest;rotatable=0;fontStyle=0;fillColor=#e51400;labelBorderColor=none;strokeColor=#B20000;fontColor=#000000;labelBackgroundColor=none;horizontal=1;" vertex="1" parent="41">
                    <mxGeometry y="150" width="132" height="30" as="geometry"/>
                </mxCell>
                <mxCell id="53" value="FrontPage" style="swimlane;fontStyle=0;childLayout=stackLayout;horizontal=1;startSize=30;horizontalStack=0;resizeParent=1;resizeParentMax=0;resizeLast=0;collapsible=1;marginBottom=0;labelBorderColor=none;fillColor=#e51400;strokeColor=#B20000;fontColor=#000000;labelBackgroundColor=none;" vertex="1" parent="1">
                    <mxGeometry x="230" y="280" width="140" height="90" as="geometry">
                        <mxRectangle x="230" y="280" width="50" height="40" as="alternateBounds"/>
                    </mxGeometry>
                </mxCell>
                <mxCell id="54" value="Learn More" style="text;fillColor=#e51400;align=left;verticalAlign=middle;spacingLeft=4;spacingRight=4;overflow=hidden;points=[[0,0.5],[1,0.5]];portConstraint=eastwest;rotatable=0;labelBorderColor=none;strokeColor=#B20000;fontColor=#000000;labelBackgroundColor=none;horizontal=1;" vertex="1" parent="53">
                    <mxGeometry y="30" width="140" height="30" as="geometry"/>
                </mxCell>
                <mxCell id="55" value="Subscribe" style="text;fillColor=#e51400;align=left;verticalAlign=middle;spacingLeft=4;spacingRight=4;overflow=hidden;points=[[0,0.5],[1,0.5]];portConstraint=eastwest;rotatable=0;labelBorderColor=none;strokeColor=#B20000;fontColor=#000000;labelBackgroundColor=none;horizontal=1;" vertex="1" parent="53">
                    <mxGeometry y="60" width="140" height="30" as="geometry"/>
                </mxCell>
                <mxCell id="61" style="edgeStyle=none;html=1;exitX=0.5;exitY=0;exitDx=0;exitDy=0;entryX=0;entryY=0.5;entryDx=0;entryDy=0;labelBackgroundColor=none;fontColor=#000000;fillColor=#e51400;strokeColor=#B20000;" edge="1" parent="1" source="58" target="2">
                    <mxGeometry relative="1" as="geometry"/>
                </mxCell>
                <mxCell id="58" value="NavBar" style="rounded=1;whiteSpace=wrap;html=1;fillColor=#e51400;strokeColor=#B20000;fontColor=#000000;labelBackgroundColor=none;horizontal=1;" vertex="1" parent="1">
                    <mxGeometry x="40" y="160" width="120" height="60" as="geometry"/>
                </mxCell>
            </root>
        </mxGraphModel>
    </diagram>
</mxfile>